REM MD5 91a6989d466bb05fd96f8561058c6b59
FILE "AI Shougi 2 Deluxe (Japan).bin" BINARY
  TRACK 01 MODE2/2352
    INDEX 01 00:00:00
  TRACK 02 AUDIO
    INDEX 00 01:05:56
    INDEX 01 01:07:56
  TRACK 03 AUDIO
    INDEX 00 03:05:30
    INDEX 01 03:07:30
REM LEADOUT 11:09:04
